<?xml version="1.0" encoding="UTF-8"?>
<svg id="Ebene_1" data-name="Ebene 1" xmlns="http://www.w3.org/2000/svg" viewBox="0 0 221.15 74.57">
  <defs>
    <style>
      .cls-1 {
        fill: #fff;
      }

      .cls-2 {
        fill: #009ddf;
      }
    </style>
  </defs>
  <rect class="cls-1" x="2.62" y="45.73" width="215.91" height="26.22"/>
  <g>
    <path class="cls-2" d="M0,0V74.57H221.15V0H0ZM2.62,45.73H218.53v26.22H2.62v-26.22Z"/>
    <path class="cls-1" d="M45.28,23.43v-.08c.89-.29,2.12-.81,3.05-1.96,.47-.57,1.2-2.15,1.14-4.64-.12-5.08-2.89-7.06-10.31-7.06H13.42v27.73h28.53c5.16,0,8.59-1.21,8.59-7.14,0-3.35-1.04-5.16-2.73-6.02-.86-.44-1.55-.72-2.53-.84m-23.72-7.79h16.61c2.09,0,3.15,.92,3.15,2.72s-1.06,2.68-3.15,2.68H21.56v-5.41Zm16.82,15.82H21.56v-5.41h16.82c1.75,0,3.77,.32,3.77,2.84s-2.74,2.57-3.77,2.57"/>
    <path class="cls-1" d="M82.17,32.35l2.83,5.07h9.03l-15.8-27.73h-11.29l-15.56,27.73h9.07l2.67-5.07h19.05Zm-9.61-17.49l6.72,12.24h-13.24l6.52-12.24Z"/>
    <path class="cls-1" d="M130.84,9.69h-8.15V25.77c0,3.93-1.61,5.53-5.57,5.53h-9.03c-3.96,0-5.57-1.6-5.57-5.53V9.69h-8.15V27.67c0,6.96,3.61,10.07,11.71,10.07h13.04c8.1,0,11.71-3.11,11.71-10.07V9.69Z"/>
    <polygon class="cls-1" points="166.45 25.94 166.45 20.93 144.28 20.93 144.28 15.41 167.68 15.41 167.68 9.69 136.14 9.69 136.14 37.42 168.21 37.42 168.21 31.46 144.28 31.46 144.28 25.94 166.45 25.94"/>
    <path class="cls-1" d="M199.52,34.44v2.98h8.15v-4.4c0-4.21-1.23-5.02-2.65-5.68-1.39-.64-2.23-.69-2.23-.69v-.08s.23,.02,1.85-.71c1.62-.73,3.15-2.73,3.15-6.32v-1.82c0-5.72-2.44-8.05-8.42-8.05h-27.01v27.73h8.14v-7.44h14.81c3.11,0,4.21,1.17,4.21,4.46m-19.02-18.56h14.73c2.46,0,4.66,.27,4.66,3.48v.95c0,2.41-1.18,3.48-3.84,3.48h-15.54v-7.9Z"/>
  </g>
  <g>
    <path class="cls-2" d="M16.83,50.26v17.16h-3.29v-17.16h3.29Zm10.13,0l-6.4,7.95,6.82,9.21h-4.19l-6.3-9.1,6.28-8.05h3.81Z"/>
    <path class="cls-2" d="M43.32,58.82c0,5.4-3.06,8.93-7.74,8.93s-7.74-3.52-7.74-8.93,3.06-8.9,7.74-8.9,7.74,3.52,7.74,8.9Zm-12.06,0c0,3.81,1.62,6.1,4.32,6.1s4.32-2.29,4.32-6.1-1.62-6.07-4.32-6.07-4.32,2.29-4.32,6.07Z"/>
    <path class="cls-2" d="M51.07,50.26l3.7,13.63,3.76-13.63h4.55v17.16h-2.98v-13.37l-3.65,13.37h-3.4l-3.6-13.37v13.37h-2.98v-17.16h4.6Z"/>
    <path class="cls-2" d="M71.47,50.26c2.52,0,3.7,.13,4.86,.51,1.98,.64,3.19,2.55,3.19,4.94s-1.31,4.35-3.34,4.94c-.98,.26-2.08,.36-4.4,.36h-1.03v6.4h-3.29v-17.16h4.01Zm.33,7.95c1.9,0,2.34-.05,2.98-.28,.85-.31,1.36-1.16,1.36-2.24s-.44-1.83-1.16-2.21c-.64-.31-1.34-.41-3.04-.41h-1.21v5.15h1.05Z"/>
    <path class="cls-2" d="M86.7,50.26c3.03,0,4.19,.18,5.38,.82,1.54,.82,2.44,2.47,2.44,4.45,0,2.24-1.03,3.86-3.04,4.76l3.94,7.12h-3.83l-3.5-6.56h-2.37v6.56h-3.29v-17.16h4.27Zm.21,7.79c1.62,0,2.16-.05,2.8-.28,.9-.33,1.44-1.18,1.44-2.26,0-.88-.41-1.6-1.11-2.01-.67-.39-1.13-.44-3.37-.44h-.95v4.99h1.18Z"/>
    <path class="cls-2" d="M108.79,57.12v2.8h-6.82v4.68h7.77v2.8h-11.06v-17.16h10.78v2.8h-7.48v4.06h6.82Z"/>
    <path class="cls-2" d="M121.73,55.3c-.13-1.62-1.16-2.52-2.86-2.52-1.36,0-2.44,.82-2.44,1.85,0,.54,.31,1,.87,1.31,.33,.18,.72,.36,1.16,.54l.57,.21,.54,.23,.57,.21c2.26,.93,2.34,.95,2.88,1.26,1.65,.95,2.37,2.21,2.37,4.06,0,3.24-2.37,5.3-6.12,5.3-4.22,0-6.53-2.13-6.69-6.17h3.19c.21,2.21,1.39,3.32,3.52,3.32,1.62,0,2.73-.75,2.73-1.83,0-.69-.36-1.21-1.18-1.65-.31-.18-.59-.31-.85-.41l-.69-.31-.72-.28-.69-.28c-1.98-.85-2.96-1.41-3.6-2.11-.75-.85-1.13-1.9-1.13-3.06,0-2.98,2.39-5.04,5.89-5.04s5.68,2.01,5.86,5.38h-3.16Z"/>
    <path class="cls-2" d="M137.48,55.3c-.13-1.62-1.16-2.52-2.85-2.52-1.36,0-2.44,.82-2.44,1.85,0,.54,.31,1,.88,1.31,.33,.18,.72,.36,1.16,.54l.57,.21,.54,.23,.57,.21c2.26,.93,2.34,.95,2.88,1.26,1.65,.95,2.37,2.21,2.37,4.06,0,3.24-2.37,5.3-6.12,5.3-4.22,0-6.53-2.13-6.69-6.17h3.19c.21,2.21,1.39,3.32,3.52,3.32,1.62,0,2.73-.75,2.73-1.83,0-.69-.36-1.21-1.18-1.65-.31-.18-.59-.31-.85-.41l-.69-.31-.72-.28-.69-.28c-1.98-.85-2.96-1.41-3.6-2.11-.75-.85-1.13-1.9-1.13-3.06,0-2.98,2.39-5.04,5.89-5.04s5.68,2.01,5.86,5.38h-3.16Z"/>
    <path class="cls-2" d="M159.39,58.82c0,5.4-3.06,8.93-7.74,8.93s-7.74-3.52-7.74-8.93,3.06-8.9,7.74-8.9,7.74,3.52,7.74,8.9Zm-12.06,0c0,3.81,1.62,6.1,4.32,6.1s4.32-2.29,4.32-6.1-1.62-6.07-4.32-6.07-4.32,2.29-4.32,6.07Z"/>
    <path class="cls-2" d="M167.24,50.26c3.03,0,4.19,.18,5.38,.82,1.54,.82,2.44,2.47,2.44,4.45,0,2.24-1.03,3.86-3.03,4.76l3.94,7.12h-3.83l-3.5-6.56h-2.37v6.56h-3.29v-17.16h4.27Zm.21,7.79c1.62,0,2.16-.05,2.8-.28,.9-.33,1.44-1.18,1.44-2.26,0-.88-.41-1.6-1.11-2.01-.67-.39-1.13-.44-3.37-.44h-.95v4.99h1.18Z"/>
    <path class="cls-2" d="M189.08,57.12v2.8h-6.82v4.68h7.77v2.8h-11.06v-17.16h10.78v2.8h-7.49v4.06h6.82Z"/>
    <path class="cls-2" d="M197.52,50.26l6.94,12.09v-12.09h3.14v17.16h-3.32l-7.15-12.09v12.09h-3.14v-17.16h3.52Z"/>
  </g>
</svg>