<?xml version="1.0" encoding="UTF-8" standalone="no"?>
<!-- Created with Inkscape (http://www.inkscape.org/) -->

<svg
   xmlns:dc="http://purl.org/dc/elements/1.1/"
   xmlns:cc="http://creativecommons.org/ns#"
   xmlns:rdf="http://www.w3.org/1999/02/22-rdf-syntax-ns#"
   xmlns:svg="http://www.w3.org/2000/svg"
   xmlns="http://www.w3.org/2000/svg"
   xmlns:sodipodi="http://sodipodi.sourceforge.net/DTD/sodipodi-0.dtd"
   xmlns:inkscape="http://www.inkscape.org/namespaces/inkscape"
   version="1.1"
   id="svg2"
   xml:space="preserve"
   width="249"
   height="257.71732"
   viewBox="0 0 249 257.71731"
   sodipodi:docname="Piston_Logo_k30%_2015_cmyk.svg"
   inkscape:version="0.92.2 5c3e80d, 2017-08-06"><metadata
     id="metadata8"><rdf:RDF><cc:Work
         rdf:about=""><dc:format>image/svg+xml</dc:format><dc:type
           rdf:resource="http://purl.org/dc/dcmitype/StillImage" /><dc:title /></cc:Work></rdf:RDF></metadata><defs
     id="defs6"><clipPath
       clipPathUnits="userSpaceOnUse"
       id="clipPath14"><path
         d="M 190.842,297.152 H 417.158 V 530.486 H 190.842 Z"
         id="path12"
         inkscape:connector-curvature="0" /></clipPath><clipPath
       clipPathUnits="userSpaceOnUse"
       id="clipPath24"><path
         d="M 0,841.89 H 595.275 V 0 H 0 Z"
         id="path22"
         inkscape:connector-curvature="0" /></clipPath></defs><sodipodi:namedview
     pagecolor="#ffffff"
     bordercolor="#666666"
     borderopacity="1"
     objecttolerance="10"
     gridtolerance="10"
     guidetolerance="10"
     inkscape:pageopacity="0"
     inkscape:pageshadow="2"
     inkscape:window-width="1671"
     inkscape:window-height="933"
     id="namedview4"
     showgrid="false"
     inkscape:zoom="0.97527027"
     inkscape:cx="136.76743"
     inkscape:cy="-39.323766"
     inkscape:window-x="0"
     inkscape:window-y="939"
     inkscape:window-maximized="0"
     inkscape:current-layer="g10" /><g
     id="g10"
     inkscape:groupmode="layer"
     inkscape:label="Piston_Logo_k30%_2015_cmyk"
     transform="matrix(1.3333333,0,0,-1.3333333,-272.35001,690.11865)"
     clip-path="url(#clipPath14)"><g
       id="g18"
       transform="translate(-8.184888,8.2547032)"><g
         id="g20"
         clip-path="url(#clipPath24)"><g
           id="g26"
           transform="translate(392.2754,432.6523)"><path
             d="m 0,0 -0.123,0.653 -0.665,-0.002 -2.233,-0.005 0.003,-1.6 c 0,0 0.881,0.002 1.541,0.004 0.804,-4.451 1.283,-9.003 1.376,-13.553 l 1.6,0.033 C 1.399,-9.61 0.895,-4.742 0,0 m -7.503,22.349 -0.394,0.58 -0.627,-0.315 -5.457,-2.739 c -1.204,2.391 -2.518,4.729 -3.959,6.997 l -1.35,-0.858 c 1.412,-2.222 2.7,-4.514 3.879,-6.857 l -12.358,-6.205 c -0.561,1.116 -1.142,2.222 -1.766,3.303 l -1.387,-0.799 c 0.609,-1.055 1.176,-2.134 1.724,-3.222 l -13.764,-6.91 0.719,-1.429 c 0,0 6.47,3.248 13.747,6.901 0.927,-1.965 1.763,-3.97 2.478,-6.007 l 1.51,0.53 c -0.738,2.101 -1.601,4.168 -2.559,6.195 4.361,2.19 8.866,4.452 12.359,6.205 1.931,-4.04 3.523,-8.236 4.742,-12.557 l 1.539,0.434 c -1.245,4.419 -2.875,8.71 -4.85,12.841 2.672,1.342 4.507,2.264 4.797,2.409 1.543,-2.509 2.883,-6.143 4.263,-10.068 C -5.193,10.387 -7.636,9.41 -7.636,9.41 l 0.594,-1.486 4.846,1.939 -0.257,0.732 c -1.613,4.595 -3.137,8.936 -5.05,11.754 m 4.616,-60.548 1.547,-0.406 c 1.014,3.863 1.768,7.841 2.241,11.826 l -1.588,0.189 c -0.465,-3.911 -1.206,-7.817 -2.2,-11.609 M -34.63,-86.497 c -0.396,0.396 -1.552,1.552 -2.766,2.766 l 22.575,22.575 2.766,-2.767 c -1.051,-1.052 -21.523,-21.523 -22.575,-22.574 m 19.497,11.133 c -0.602,-0.602 -1.545,-1.543 -2.177,-2.175 l -3.048,3.05 2.176,2.176 c 0.495,-0.496 2.362,-2.364 3.049,-3.051 m -7.366,-5.53 -2.123,2.126 -1.133,-1.13 2.95,-2.955 c -0.692,-0.691 -2.057,-2.055 -2.737,-2.735 -0.627,0.628 -2.288,2.29 -2.956,2.958 l 7.009,7.01 2.131,-2.132 z m -18.321,0.586 0.357,0.748 -0.105,0.092 v 0.652 l 21.703,21.702 c 0.73,-0.731 1.541,-1.54 2.345,-2.346 l -22.574,-22.574 z m -1.459,77.628 c -0.942,0.15 -1.665,0.959 -1.665,1.942 0,1.087 0.885,1.972 1.973,1.972 h 34.059 c 1.087,0 1.972,-0.885 1.972,-1.972 0,-1.088 -0.885,-1.973 -1.972,-1.973 h -33.079 z m 0.111,-4.274 -0.705,-0.733 -3.426,3.426 h 3.835 c 0.098,-0.013 0.196,-0.024 0.296,-0.03 z m 0,-4.774 h -2.212 l 1.573,1.713 0.639,-0.638 z m 0,-15.699 h -14.573 v 14.1 h 14.573 z m 0,-50.459 h -0.18 -14.393 v 48.86 h 14.573 z m -4.925,-11.833 c -0.726,0.005 -3.212,0.023 -3.897,0.028 -0.346,0.646 -4.166,7.8 -5.451,10.206 h 14.252 c -0.426,-0.89 -4.522,-9.439 -4.904,-10.234 m 2.386,-9.053 c -0.412,-0.39 -0.645,-0.61 -1.042,-0.985 -0.712,0.713 -2.502,2.503 -2.502,2.503 h -0.621 v 0.003 h -0.945 c 0,0 -1.789,-1.791 -2.502,-2.504 -0.397,0.375 -0.63,0.595 -1.042,0.984 l 3.083,3.083 v 4.391 l 2.488,-0.017 v -4.378 c 0,0 2.28,-2.279 3.083,-3.08 m -12.034,89.044 0.544,0.608 2.607,-2.608 h -3.151 z m 0,5.467 h 2.75 l -2.75,-3.087 z m 5.563,-3.776 -1.921,-1.921 -2.029,2.031 1.802,2.012 z m 2.615,3.776 0.582,-0.58 -2.085,-2.085 -2.665,2.665 z m 1.12,-7.467 h -3.885 l -0.639,0.639 1.927,1.927 z m -1.492,3.671 2.085,2.084 2.868,-2.866 -2.045,-2.125 z m 41.023,0.764 c 1.087,0 1.972,-0.885 1.972,-1.972 0,-1.088 -0.885,-1.973 -1.972,-1.973 h -32.656 v 3.945 z m 0,-8.332 c 1.087,0 1.972,-0.886 1.972,-1.973 0,-1.087 -0.885,-1.971 -1.972,-1.971 h -32.656 v 3.944 z m 0,-8.331 c 1.087,0 1.972,-0.885 1.972,-1.973 0,-1.087 -0.885,-1.971 -1.972,-1.971 h -32.656 v 3.944 z m 0,-8.331 c 1.087,0 1.972,-0.885 1.972,-1.972 0,-1.087 -0.885,-1.971 -1.972,-1.971 h -32.656 v 3.943 z m 0,-8.331 c 1.087,0 1.972,-0.885 1.972,-1.972 0,-1.088 -0.885,-1.973 -1.972,-1.973 h -32.656 v 3.945 z m -15.406,-13.875 h 1.831 c 0.072,-0.072 0.406,-0.406 0.925,-0.924 l -20.006,-20.005 v 3.677 z m -17.25,-6.073 v 6.073 h 6.076 z m 9.47,6.073 h 4.385 L -40.568,-68.35 v 4.389 z m 23.186,5.545 c 1.087,0 1.972,-0.885 1.972,-1.973 0,-1.088 -0.885,-1.973 -1.972,-1.973 h -32.656 v 3.946 z m -56.921,-32.78 0.001,10.908 h 6.491 v -8.088 c -0.038,-0.179 -0.026,-0.369 0.067,-0.543 l 1.215,-2.277 z m 5.28,-22.222 h -6.079 v -1.6 h 7.694 l 0.008,-0.009 h 4.006 c 0.262,-0.013 2.873,-0.213 2.873,-2.661 v -2.509 H -64.62 c -0.354,0.355 -2.929,2.929 -3.71,3.71 1.974,2.977 3.24,6.465 3.497,10.246 v 12.645 h 2.879 v -17.441 z m -26.529,-11.057 c -10.863,0 -19.701,8.838 -19.701,19.701 v 73.712 c 0,10.461 9.076,19.298 19.82,19.298 10.77,0 19.532,-8.483 19.532,-18.909 v -75.514 c -0.697,-10.231 -9.33,-18.288 -19.651,-18.288 m -21.652,4.278 h -12.782 v 2.509 c 0,2.448 2.614,2.648 2.912,2.662 l 3.181,-10e-4 0.008,0.009 h 7.154 v 1.6 h -5.541 l 2.401,2.381 v 17.517 h 3.018 v -11.254 c 0,-4.282 1.281,-8.264 3.465,-11.607 -0.685,-0.685 -3.451,-3.449 -3.816,-3.816 m -6.809,29.078 1.202,2.38 v 8.451 h 5.958 v -10.831 z m -0.397,74.682 c -0.046,-0.052 -0.095,-0.109 -0.149,-0.172 l -3.095,3.093 h 3.244 z m 0,-4.546 h -1.852 l 1.852,2.119 z m 0,-15.696 h -14.572 v 14.097 h 14.572 z m 0,-50.46 h -14.573 v 5.974 l 0.079,0.079 -0.079,0.079 v 42.728 h 14.573 z m -5.196,-11.516 h -4.456 c -0.36,0.709 -4.132,8.135 -5.036,9.916 h 14.531 c -0.656,-1.291 -4.664,-9.177 -5.039,-9.916 m 2.021,-9.274 c -0.411,-0.389 -0.644,-0.608 -1.041,-0.983 -0.712,0.713 -2.549,2.539 -2.549,2.539 h -0.944 v -0.006 h -0.575 c 0,0 -1.79,-1.79 -2.503,-2.502 -0.397,0.375 -0.629,0.596 -1.042,0.984 0.803,0.803 3.083,3.082 3.083,3.082 v 4.561 h 2.49 v -4.594 c 0,0 2.279,-2.278 3.081,-3.081 m -13.469,13.142 -6.694,6.695 -1.698,-1.697 6.694,-6.696 c -0.654,-0.654 -1.326,-1.326 -1.979,-1.978 l -6.968,6.97 -1.698,-1.698 6.969,-6.969 c -1.116,-1.117 -1.985,-1.986 -2.261,-2.261 -1.062,1.062 -25.187,25.188 -26.249,26.251 0.257,0.257 1.116,1.116 2.26,2.261 l 5.866,-5.867 1.697,1.698 -5.866,5.866 c 0.64,0.639 1.31,1.309 1.979,1.978 l 5.958,-5.958 1.697,1.698 -5.957,5.958 c 0.878,0.879 1.697,1.698 2.368,2.368 l 25.563,-25.563 0.463,-0.912 c -0.395,-0.395 -1.183,-1.183 -2.144,-2.144 m -19.487,-3.408 c -0.693,0.692 -2.13,2.129 -2.821,2.82 0.229,0.23 1.027,1.031 1.027,1.031 l -4.254,4.252 c 0,0 -0.842,-0.842 -1.119,-1.119 -0.714,0.714 -2.337,2.336 -3.051,3.05 0.673,0.672 2.29,2.289 2.775,2.774 l 10.124,-10.125 c -0.494,-0.494 -2.024,-2.025 -2.681,-2.683 m 13.332,34.234 h 6.627 v -6.626 z m -8.821,0 h 5.426 l 10.022,-10.021 v -5.425 z m -7.678,0 h 4.283 l 18.824,-18.822 0.019,0.018 v -4.362 l -22.657,22.656 c 0.009,0.009 0.02,0.021 0.02,0.021 z m -11.099,1.599 c -1.087,0 -1.973,0.885 -1.973,1.973 0,1.088 0.886,1.973 1.973,1.973 h 34.225 v -3.946 z m 0,8.331 c -1.087,0 -1.973,0.885 -1.973,1.973 0,1.087 0.886,1.972 1.973,1.972 h 34.225 v -3.945 z m 0,8.333 c -1.087,0 -1.973,0.884 -1.973,1.971 0,1.087 0.886,1.972 1.973,1.972 h 34.225 v -3.943 z m 0,8.33 c -1.087,0 -1.973,0.884 -1.973,1.971 0,1.088 0.886,1.973 1.973,1.973 h 34.225 V -27.9 Z m 0,8.331 c -1.087,0 -1.973,0.884 -1.973,1.971 0,1.087 0.886,1.973 1.973,1.973 h 34.225 v -3.944 z m 0,8.331 c -1.087,0 -1.973,0.885 -1.973,1.973 0,1.087 0.886,1.972 1.973,1.972 h 34.225 v -3.945 z m 34.059,8.527 h -34.059 c -1.087,0 -1.973,0.885 -1.973,1.973 0,1.087 0.886,1.972 1.973,1.972 h 34.059 c 1.088,0 1.973,-0.885 1.973,-1.972 0,-1.088 -0.885,-1.973 -1.973,-1.973 m 5.766,-1.337 -0.666,-0.699 0.002,-0.002 -3.337,-3.336 v 4.037 z m 0.036,-7.467 h -4.037 v 1.167 l 1.436,1.436 z m 2.688,3.539 -1.982,-1.982 -2.176,2.177 1.928,1.929 z m 2.341,3.928 0.794,-0.793 -2.003,-2.003 c -1.179,1.123 -2.317,2.206 -2.936,2.796 z m 1.375,-7.467 h -4.141 l -0.426,0.426 2.01,2.01 z m -1.425,3.568 1.975,1.975 2.381,-2.38 c -0.67,-0.77 -1.398,-1.606 -1.785,-2.044 -0.369,0.352 -1.403,1.336 -2.571,2.449 m 7.156,-3.412 v 8.911 h -0.134 c 4.683,5.476 10.955,9.43 17.891,11.272 V 6.163 c -6.715,-1.614 -13.001,-5.578 -17.252,-11.069 l 1.264,-0.979 c 4.004,5.17 9.677,8.856 15.988,10.404 v -7.43 h 0.198 c -3.813,-1.881 -7.013,-4.845 -9.148,-8.448 z m 0,-15.191 v 12.79 h 7.586 c -1.044,-2.433 -1.628,-5.081 -1.628,-7.834 v -4.956 z m 5.958,-27.944 V -68.42 h -5.958 v 7.951 z m -5.958,-2.577 v 28.121 h 5.958 v -22.147 z m 13.398,75.252 c 2.941,-3.085 6.609,-4.273 6.765,-4.332 0.106,-0.04 0.214,-0.055 0.32,-0.05 V 13.51 h -2.726 v -2.205 c -8.236,-2.04 -15.789,-7.014 -21.017,-13.753 h -3.973 c 4.144,4.143 19.678,19.676 20.631,20.629 m -19.553,-9.016 12.461,12.46 4.137,-4.137 -12.46,-12.459 z m -3.136,-0.874 c -0.97,-0.005 -3.553,-0.018 -6.192,-0.031 l 22.917,22.917 c -0.011,-2.566 -0.021,-5.075 -0.026,-6.188 z m -13.336,-0.067 c -0.18,0.181 -0.354,0.355 -0.672,0.673 1.048,1.048 28.178,28.177 30.217,30.216 0.226,-0.214 0.431,-0.41 0.547,-0.522 -10e-4,-0.217 -0.008,-1.886 -0.017,-4.006 L -132.235,8.242 c -1.981,-0.01 -3.524,-0.017 -3.733,-0.018 m -0.257,9.645 19.601,19.639 3.168,-3.166 -19.622,-19.621 z m -6.99,-4.74 -2.881,2.882 8.691,8.691 -1.698,1.697 -8.69,-8.691 -2.966,2.966 8.692,8.692 -1.698,1.697 -8.692,-8.691 -3.585,3.586 31.403,31.402 3.095,-3.095 -9.602,-9.603 1.697,-1.697 9.602,9.602 c 1.011,-1.01 2.014,-2.014 2.967,-2.966 l -9.603,-9.602 1.697,-1.697 9.602,9.602 3.341,-3.341 z m -18.012,18.013 c 5.614,5.612 30.434,30.433 31.404,31.402 0.269,-0.269 1.621,-1.621 3.487,-3.487 L -157.74,27.655 Z m 0.62,8.265 c 0.839,0.84 4.205,4.204 5.045,5.044 0.661,-0.662 2.281,-2.283 2.69,-2.692 l -5.043,-5.044 z m 16.127,15.85 c 0.839,0.839 4.203,4.204 5.043,5.043 l 2.553,-2.553 -5.043,-5.044 c -0.469,0.469 -1.908,1.909 -2.553,2.554 M -77.451,11.91 V -2.448 c -2.608,1.119 -5.483,1.752 -8.512,1.752 -2.818,0 -5.529,-0.569 -8.021,-1.585 V 11.91 Z m -13.808,6.524 h 11.815 v -4.911 h -11.815 z m 23.942,-30.007 c -1.984,3.601 -5.04,6.561 -8.755,8.479 h 0.22 V 4.185 C -69.728,2.44 -64.271,-1.343 -60.473,-6.5 l 1.289,0.949 c -4.051,5.498 -10.123,9.634 -16.668,11.448 v 2.506 c 6.904,-2.159 13.059,-6.446 17.511,-12.197 v -7.779 z m 2.486,-15.191 v 5.559 c 0,2.548 -0.503,4.978 -1.382,7.231 h 7.872 v -12.79 z m 6.49,-33.46 v -8.196 h -6.491 v 14.687 z m -6.436,9.83 -0.055,-0.091 10e-4,21.321 h 6.49 v -27.665 z m -13.067,64.311 c 0.085,-0.015 0.172,-0.025 0.262,-0.011 0.201,0.032 5.008,1.219 8.931,4.128 0.864,-0.864 12.274,-12.272 13.21,-13.208 -0.759,-0.93 -2.155,-2.883 -2.704,-5.104 -4.731,5.296 -10.897,9.206 -17.707,11.185 v 2.603 h -1.992 z m 18.851,9.377 c 0.947,-0.947 7.966,-7.966 8.913,-8.913 -0.826,-0.826 -5.133,-5.136 -6.325,-6.329 l -8.916,8.915 c 1.384,1.385 5.527,5.527 6.328,6.327 m 0.8,7.729 16.165,-16.166 h -6.267 l -9.898,9.9 z m 0,4.879 1.964,1.964 21.649,-21.649 c -0.797,-0.797 -1.297,-1.297 -1.359,-1.36 h -2.696 l -19.558,19.561 z m 6.865,6.865 5.674,-5.675 1.697,1.697 -5.674,5.675 c 1.086,1.086 2.214,2.214 3.348,3.349 l 5.062,-5.064 1.698,1.697 -5.063,5.064 c 0.961,0.961 1.91,1.91 2.827,2.827 l 21.65,-21.649 c -0.885,-0.885 -1.805,-1.805 -2.736,-2.735 l -6.296,6.295 -1.697,-1.697 6.296,-6.296 c -1.19,-1.19 -2.372,-2.371 -3.502,-3.502 l -5.567,5.569 -1.698,-1.697 5.568,-5.569 c -1.163,-1.163 -2.232,-2.231 -3.142,-3.142 l -21.649,21.649 c 0.949,0.95 2.032,2.033 3.204,3.204 m 13.245,13.246 21.649,-21.65 c -0.614,-0.613 -1.28,-1.28 -1.978,-1.977 l -21.65,21.649 c 0.697,0.695 1.359,1.358 1.979,1.978 m 3.962,3.962 c 4.467,-4.421 20.82,-20.609 21.76,-21.539 l -2.375,-2.375 -21.65,21.649 c 0.971,0.971 1.754,1.755 2.265,2.265 m 9.162,-1.832 c 0.637,-0.638 1.402,-1.403 1.817,-1.817 -0.583,-0.583 -1.865,-1.866 -2.497,-2.497 l -1.826,1.808 z m 9.486,-9.487 c 0.6,-0.599 1.272,-1.271 1.651,-1.649 -0.571,-0.57 -1.804,-1.805 -2.449,-2.45 l -1.66,1.642 z m -3.752,-103.149 h 11.313 c 1.97,0 3.571,1.602 3.571,3.572 0,1.97 -1.601,3.572 -3.571,3.572 h -32.656 v 1.186 h 32.656 c 1.97,0 3.571,1.602 3.571,3.573 0,1.97 -1.601,3.571 -3.571,3.571 h -32.656 v 1.189 h 32.656 c 1.97,0 3.571,1.601 3.571,3.571 0,1.97 -1.601,3.572 -3.571,3.572 h -32.656 v 1.187 h 32.656 c 1.97,0 3.571,1.602 3.571,3.571 0,1.97 -1.601,3.573 -3.571,3.573 h -32.656 v 1.187 h 32.656 c 1.97,0 3.571,1.602 3.571,3.571 0,1.97 -1.601,3.573 -3.571,3.573 h -32.656 v 1.187 h 32.656 c 1.97,0 3.571,1.603 3.571,3.573 0,1.97 -1.601,3.572 -3.571,3.572 h -32.656 v 1.382 h 32.656 c 1.97,0 3.571,1.603 3.571,3.573 0,1.969 -1.601,3.572 -3.571,3.572 h -34.059 c -1.97,0 -3.573,-1.603 -3.573,-3.572 0,-0.709 0.214,-1.367 0.571,-1.923 h -11.213 c -0.195,0.259 -0.39,0.517 -0.592,0.77 0.088,3.044 2.977,6.18 3.008,6.213 l 0.529,0.566 -2.033,2.033 6.334,6.337 h 13.663 l 25.183,25.183 -5.041,4.991 3.574,3.575 -3.996,3.995 -0.015,-0.016 -0.008,0.008 -3.579,-3.579 -5.343,5.289 3.624,3.622 -3.998,3.995 -0.008,-0.008 -0.175,0.175 -3.634,-3.635 -5.432,5.376 -0.444,-0.449 -0.004,0.004 -24.986,-24.985 -0.234,-0.234 V 24.757 l -6.659,-6.658 -2.059,2.058 -0.56,-0.455 c -3.699,-3.006 -8.718,-4.208 -8.765,-4.216 -0.003,0 -0.005,-0.002 -0.008,-0.003 v 4.55 h -15.014 v -4.6 c -0.889,0.329 -4.093,1.648 -6.463,4.414 l -0.562,0.656 -0.611,-0.611 -1.273,-1.273 -4.137,4.137 1.343,1.343 c 0.083,0.083 0.141,0.18 0.18,0.282 h 0.045 l 0.001,0.239 c 0.002,0.03 0.002,0.058 10e-4,0.088 l 0.06,14.557 -2.186,2.088 -0.954,-0.981 -0.006,0.006 -4.339,-4.339 -3.17,3.168 4.294,4.302 -0.002,0.003 1.054,1.053 -20.24,20.242 -5.93,-5.929 -3.684,3.685 -0.566,-0.566 -6.74,-6.74 3.685,-3.685 -8.682,-8.682 -3.822,3.823 -0.566,-0.565 -6.742,-6.741 3.824,-3.823 -4.449,-4.448 1.132,-1.131 0.006,0.006 19.138,-19.14 0.003,0.003 0.005,-0.005 5.291,5.3 3.145,-3.146 -3.561,-3.56 -0.565,-0.565 2.273,-2.278 14.413,0.073 v 0.035 c 0.12,-0.049 0.241,-0.041 0.381,0.099 l 1.207,1.207 4.137,-4.137 -6.232,-6.231 c -0.034,-0.034 -0.049,-0.077 -0.076,-0.114 h -5.35 c 0.279,0.509 0.443,1.09 0.443,1.71 0,1.969 -1.603,3.572 -3.573,3.572 h -34.059 c -1.97,0 -3.572,-1.603 -3.572,-3.572 0,-1.97 1.602,-3.573 3.572,-3.573 h 34.225 v -1.382 h -34.225 c -1.97,0 -3.572,-1.602 -3.572,-3.572 0,-1.97 1.602,-3.573 3.572,-3.573 h 34.225 v -1.187 h -34.225 c -1.97,0 -3.572,-1.603 -3.572,-3.573 0,-1.969 1.602,-3.571 3.572,-3.571 h 34.225 v -1.187 h -34.225 c -1.97,0 -3.572,-1.603 -3.572,-3.573 0,-1.969 1.602,-3.571 3.572,-3.571 h 34.225 v -1.187 h -34.225 c -1.97,0 -3.572,-1.602 -3.572,-3.572 0,-1.97 1.602,-3.571 3.572,-3.571 h 34.225 v -1.189 h -34.225 c -1.97,0 -3.572,-1.601 -3.572,-3.571 0,-1.971 1.602,-3.573 3.572,-3.573 h 34.225 v -1.186 h -34.225 c -1.97,0 -3.572,-1.602 -3.572,-3.572 0,-1.97 1.602,-3.572 3.572,-3.572 h 9.815 l -12.209,-12.209 8.086,-8.086 -3.34,-3.34 -0.566,-0.565 5.313,-5.312 c 0,0 0.842,0.842 1.119,1.119 0.591,-0.591 1.403,-1.402 1.994,-1.992 -0.23,-0.23 -1.028,-1.031 -1.028,-1.031 l 5.082,-5.081 3.812,3.814 8.04,-8.04 10.541,10.541 3.104,-6.111 h 0.289 v -3.899 c -0.407,-0.406 -3.778,-3.775 -3.778,-3.775 l 3.368,-3.186 c 0,0 2.632,2.632 3.104,3.105 h 0.27 c 0.394,-0.395 3.133,-3.134 3.133,-3.134 l 3.369,3.181 c 0,0 -3.37,3.37 -3.778,3.776 v 3.932 h 0.442 l 3.4,6.734 h 3.754 v -16.851 c -0.381,-0.378 -2.676,-2.655 -3.073,-3.047 h -2.413 v -0.009 h -0.154 c -1.569,-0.064 -4.474,-1.037 -4.474,-4.261 v -4.108 h 15.043 l 4.098,4.098 c 3.897,-5.081 10.009,-8.376 16.892,-8.376 6.791,0 12.892,3.237 16.81,8.268 l 3.99,-3.99 h 15.831 v 4.108 c 0,3.224 -2.903,4.197 -4.44,4.26 h -0.162 v 0.01 h -3.227 c -0.397,0.392 -2.693,2.669 -3.074,3.047 v 16.775 h 4.394 v 0.344 l 4.007,-7.501 0.075,-0.001 v -3.739 c -0.407,-0.407 -3.778,-3.779 -3.778,-3.779 l 3.37,-3.183 c 0,0 2.727,2.731 3.13,3.133 h 0.243 c 0.393,-0.394 3.132,-3.133 3.132,-3.133 l 3.371,3.181 c 0,0 -3.373,3.37 -3.78,3.777 v 3.704 l 0.101,-10e-4 4.537,9.488 6.922,-6.923 5.001,5 4.087,-4.091 5.019,5.02 c 0,0 -0.713,0.714 -0.827,0.826 l 3.031,3.03 c 0.167,-0.166 0.919,-0.915 0.919,-0.915 l 4.529,4.527 -4.179,4.182 7.259,7.259 z m -51.304,-43.485 c -1.126,-7.669 -7.609,-13.233 -15.434,-13.233 -8.715,0 -15.805,7.091 -15.805,15.806 h -0.799 l 0.799,0.001 -0.057,71.367 c 0,9.966 9.36,15.478 15.831,15.478 8.535,0 15.479,-6.944 15.479,-15.478 h 0.032 z m -15.465,91.019 c -7.124,0 -17.431,-6.081 -17.431,-17.078 l 0.058,-71.369 c 0,-9.598 7.808,-17.405 17.404,-17.405 8.642,0 15.81,6.109 17.033,14.595 l 0.046,74.315 h -0.038 c -0.074,9.354 -7.7,16.942 -17.072,16.942 m 48.196,38.951 c -1.47,0 -2.666,1.196 -2.666,2.665 0,1.47 1.196,2.666 2.666,2.666 1.469,0 2.664,-1.196 2.664,-2.666 0,-1.469 -1.195,-2.665 -2.664,-2.665 m 4.264,2.665 c 0,2.352 -1.913,4.266 -4.264,4.266 -2.352,0 -4.265,-1.914 -4.265,-4.266 0,-2.351 1.913,-4.264 4.265,-4.264 2.351,0 4.264,1.913 4.264,4.264 M -147.305,-78.41 c -1.996,0 -3.62,1.625 -3.62,3.622 0,1.996 1.624,3.621 3.62,3.621 1.997,0 3.622,-1.625 3.622,-3.621 0,-1.997 -1.625,-3.622 -3.622,-3.622 m 0,8.843 c -2.878,0 -5.219,-2.342 -5.219,-5.221 0,-2.879 2.341,-5.222 5.219,-5.222 2.88,0 5.222,2.343 5.222,5.222 0,2.879 -2.342,5.221 -5.222,5.221 m 53.811,49.134 h 16.043 v -11.143 h -16.043 z m -1.6,-12.742 h 19.242 v 14.342 h -19.242 z m 54.668,-62.008 1.217,-2.068 c 1.8,1.058 3.605,2.202 5.364,3.402 l -1.351,1.983 c -1.716,-1.17 -3.475,-2.285 -5.23,-3.317 m -94.543,124.668 c -2.234,0 -4.052,1.819 -4.052,4.053 0,2.233 1.818,4.051 4.052,4.051 2.234,0 4.052,-1.818 4.052,-4.051 0,-2.234 -1.818,-4.053 -4.052,-4.053 m 0,9.703 c -3.116,0 -5.651,-2.534 -5.651,-5.65 0,-3.117 2.535,-5.652 5.651,-5.652 3.116,0 5.652,2.535 5.652,5.652 0,3.116 -2.536,5.65 -5.652,5.65 m 66.863,7.237 c -5.316,1.523 -10.817,2.332 -16.446,2.46 v 13.838 c 7.093,-0.138 14.128,-1.228 20.89,-3.221 z m -18.045,2.5 c -5.522,-0.005 -10.97,-0.706 -16.255,-2.068 l -4.391,13.131 c 6.69,1.814 13.596,2.752 20.646,2.758 z m 37.169,9.738 1.834,3.667 -0.736,0.351 c -4.226,2.015 -11.303,4.602 -12.289,4.836 l -0.708,0.168 -0.234,-0.689 -2.031,-5.978 c -6.928,2.047 -14.137,3.166 -21.406,3.305 v 5.049 c 0.634,-0.017 1.386,-0.037 1.386,-0.037 l 1.858,-0.089 c 2.451,-0.092 5.688,-0.415 9.649,-0.97 -0.294,-1.076 -0.862,-3.167 -0.862,-3.167 l 1.542,-0.42 1.34,4.92 -0.897,0.127 c -4.449,0.629 -7.988,1.002 -10.772,1.11 l -1.732,0.084 -3.175,0.081 0.064,-0.82 v -5.846 c -7.224,-0.006 -14.301,-0.971 -21.154,-2.838 l -1.71,5.113 c 2.979,0.77 6.941,1.606 10.512,2.357 0,0 1.244,0.263 2.128,0.45 0.099,-1.138 0.305,-3.494 0.305,-3.494 l 1.593,0.14 -0.462,5.293 -0.886,-0.187 -3.008,-0.637 c -4.472,-0.94 -9.096,-1.913 -12.215,-2.816 l 0.461,-1.422 -0.009,-0.003 1.747,-5.224 c -2.825,-0.831 -5.614,-1.803 -8.352,-2.949 l 0.617,-1.476 c 2.702,1.131 5.455,2.088 8.243,2.906 l 4.385,-13.11 c -0.854,-0.242 -1.702,-0.501 -2.546,-0.779 l 0.5,-1.52 c 0.846,0.279 1.698,0.537 2.554,0.779 l 6.68,-19.975 1.518,0.508 -6.647,19.876 c 5.12,1.309 10.397,1.983 15.746,1.989 V 26.087 h 1.599 v 21.198 c 5.452,-0.127 10.78,-0.91 15.929,-2.379 l -6.857,-20.177 1.515,-0.515 c 0,0 3.404,10.016 6.87,20.215 2.928,-0.917 5.804,-2.028 8.607,-3.378 l 0.695,1.441 c -2.861,1.379 -5.798,2.514 -8.787,3.451 1.62,4.767 3.217,9.465 4.45,13.093 4.796,-1.519 9.445,-3.491 13.865,-5.902 l 0.766,1.404 c -4.5,2.456 -9.233,4.464 -14.116,6.013 0.995,2.928 1.664,4.896 1.764,5.192 1.882,-0.631 6.91,-2.505 10.537,-4.167 -0.415,-0.829 -1.1,-2.198 -1.1,-2.198 z m -37.471,15.618 c 16.047,0 31.823,-4.235 45.624,-12.248 l 1.205,2.075 c -14.166,8.225 -30.359,12.574 -46.829,12.574 -13.132,0 -25.833,-2.674 -37.749,-7.946 l 0.971,-2.195 c 11.609,5.136 23.982,7.74 36.778,7.74 m -49.032,-170.452 4.309,-2.511 1.153,2.106 -4.197,2.444 z M -8.076,34.08 -10.09,32.773 C -0.531,18.048 4.521,0.943 4.521,-16.693 c 0,-16.302 -4.36,-32.291 -12.611,-46.242 l 2.067,-1.222 c 8.468,14.32 12.945,30.733 12.945,47.464 0,18.101 -5.187,35.658 -14.998,50.773 m -161.921,-62.11 -2.068,-0.293 -0.797,-0.113 0.117,-0.795 c 0.425,-2.879 0.998,-5.758 1.706,-8.559 l 1.551,0.393 c -0.629,2.489 -1.114,5.049 -1.516,7.608 0.593,0.084 1.232,0.175 1.232,0.175 z m 0.447,26.103 -2.326,-0.092 -0.658,-0.026 -0.101,-0.65 c -0.699,-4.477 -1.053,-9.063 -1.053,-13.63 l 0.039,-3.189 0.942,0.197 1.873,0.368 -0.309,1.57 c 0,0 -0.465,-0.092 -0.93,-0.183 -0.008,0.608 -0.016,1.237 -0.016,1.237 0,4.266 0.338,8.543 0.959,12.734 0.682,0.027 1.643,0.065 1.643,0.065 z m 0.49,12.986 6.471,-1.792 c -0.58,-1.732 -1.122,-3.475 -1.581,-5.24 l 1.549,-0.402 c 0.456,1.756 0.997,3.491 1.576,5.214 l 13.407,-3.715 c -0.031,-0.102 -0.063,-0.2 -0.097,-0.309 l -0.248,-0.785 1.525,-0.484 0.249,0.789 c 0.041,0.128 0.077,0.244 0.114,0.362 l 5.033,-1.395 0.427,1.542 c 0,0 -2.027,0.562 -4.955,1.373 0.207,0.576 0.447,1.176 0.819,2.03 l -1.466,0.639 c -0.412,-0.945 -0.673,-1.603 -0.899,-2.241 -4.072,1.128 -9.295,2.575 -13.384,3.708 1.083,3.016 2.327,5.977 3.767,8.837 l -1.429,0.72 c -1.487,-2.954 -2.77,-6.013 -3.882,-9.13 -2.651,0.735 -4.583,1.27 -4.97,1.377 0.063,0.199 0.138,0.435 0.138,0.435 0.949,3.003 2.018,6.328 3.193,9.072 0.932,-0.829 2.475,-2.2 2.475,-2.2 l 1.063,1.195 -4.11,3.654 -0.454,-0.973 c -1.391,-2.986 -2.614,-6.854 -3.692,-10.266 z m -8.368,-27.752 c 0,14.549 3.518,29.019 10.173,41.843 l -2.13,1.106 c -6.832,-13.165 -10.443,-28.016 -10.443,-42.949 0,-14.935 3.422,-29.206 10.169,-42.418 l 2.138,1.091 c -6.574,12.871 -9.907,26.775 -9.907,41.327"
             style="fill:#bdbcbc;fill-opacity:0.7;fill-rule:nonzero;stroke:none"
             id="path28"
             inkscape:connector-curvature="0" /></g></g></g></g></svg>